<?xml version="1.0" encoding="UTF-8" standalone="no"?>
<!-- Created with Inkscape (http://www.inkscape.org/) -->

<svg
   xmlns:dc="http://purl.org/dc/elements/1.1/"
   xmlns:cc="http://creativecommons.org/ns#"
   xmlns:rdf="http://www.w3.org/1999/02/22-rdf-syntax-ns#"
   xmlns:svg="http://www.w3.org/2000/svg"
   xmlns="http://www.w3.org/2000/svg"
   xmlns:sodipodi="http://sodipodi.sourceforge.net/DTD/sodipodi-0.dtd"
   xmlns:inkscape="http://www.inkscape.org/namespaces/inkscape"
   version="1.1"
   id="svg5028"
   xml:space="preserve"
   width="765.33331"
   height="765.33331"
   viewBox="0 0 765.33331 765.33331"
   sodipodi:docname="sports-logo-publicdomainvectors.org.svg"
   inkscape:version="0.92.4 (5da689c313, 2019-01-14)"><metadata
     id="metadata5034"><rdf:RDF><cc:Work
         rdf:about=""><dc:format>image/svg+xml</dc:format><dc:type
           rdf:resource="http://purl.org/dc/dcmitype/StillImage" /><dc:title></dc:title></cc:Work></rdf:RDF></metadata><defs
     id="defs5032"><clipPath
       clipPathUnits="userSpaceOnUse"
       id="clipPath5044"><path
         d="M 0,574 H 574 V 0 H 0 Z"
         id="path5042"
         inkscape:connector-curvature="0" /></clipPath></defs><sodipodi:namedview
     pagecolor="#ffffff"
     bordercolor="#666666"
     borderopacity="1"
     objecttolerance="10"
     gridtolerance="10"
     guidetolerance="10"
     inkscape:pageopacity="0"
     inkscape:pageshadow="2"
     inkscape:window-width="1920"
     inkscape:window-height="1018"
     id="namedview5030"
     showgrid="false"
     inkscape:zoom="0.91538342"
     inkscape:cx="394.01694"
     inkscape:cy="379.42372"
     inkscape:window-x="-8"
     inkscape:window-y="-8"
     inkscape:window-maximized="1"
     inkscape:current-layer="g5036" /><g
     id="g5036"
     inkscape:groupmode="layer"
     inkscape:label="sports-logo-publicdomainvectors.org"
     transform="matrix(1.3333333,0,0,-1.3333333,0,765.33333)"><g
       id="g5038"><g
         id="g5040"
         clip-path="url(#clipPath5044)"><path
           d="m 412.336,88.13 -1.232,0.896 -62.178,82.837 c 9.673,6.428 18.534,14.426 26.178,23.958 0.538,0.67 1.062,1.348 1.583,2.026 z m -250.639,0.023 60.227,82.822 c 10.525,-6.806 21.841,-11.697 33.494,-14.729 z m -76.241,237.469 86.815,-29.734 c -0.032,-0.131 -0.065,-0.264 -0.097,-0.395 -11.24,-2.483 -22.404,-5.328 -33.483,-8.549 z m 201.272,147.415 -0.817,-88.971 c -9.838,0.088 -19.659,-1.075 -29.211,-3.448 z m 203.07,-146.504 -0.767,-0.557 -89.74,-30.14 c -0.737,0.161 -1.473,0.326 -2.211,0.482 -2.61,10.514 -6.694,20.699 -12.215,30.215 z m -29.465,-144.244 15.233,37.338 46.737,-18.079 -27.737,-23.66 3.871,-36.034 -55.323,24.116 7.249,20.306 z m -180.074,154.46 c 1.423,-0.277 3.18,-0.639 5.207,-1.091 10.43,-2.32 28.073,-7.043 44.964,-15.274 0.278,-0.135 0.551,-0.273 0.83,-0.41 0.9,-2.828 2.576,-8.16 4.415,-14.324 -5.014,0.461 -10.038,0.856 -15.072,1.177 -11.311,0.719 -22.674,1.086 -34.084,1.086 -0.436,0 -0.871,-0.007 -1.307,-0.007 -11.192,-0.027 -22.339,-0.404 -33.436,-1.124 -1.974,-0.128 -3.947,-0.265 -5.919,-0.415 1.174,1.092 2.46,2.288 3.826,3.552 10.276,9.521 25.046,23.018 30.576,26.83 m 5.562,37.545 c 12.045,-0.108 24.114,-2.259 35.647,-6.506 3.692,-1.359 7.327,-2.937 10.888,-4.727 3.95,-1.984 7.807,-4.235 11.551,-6.755 1.266,-0.853 2.519,-1.737 3.759,-2.651 2.429,-3.303 4.528,-6.481 6.174,-9.33 1.908,-3.304 3.204,-6.163 3.707,-8.27 l -18.453,-9.522 -6.721,-3.468 -0.003,-0.003 c -17.679,8.693 -36.251,13.592 -46.872,15.924 -2.331,0.512 -4.275,0.9 -5.745,1.177 -3.572,6.737 -10.214,19.02 -13.934,24.74 3.235,3.003 8.588,6.343 17.421,9.383 0.86,0.013 1.721,0.016 2.581,0.008 m -79.31,-61.172 26.646,-7.874 c -12.302,-1.233 -24.535,-2.894 -36.686,-4.982 3.592,5.022 7.137,9.454 10.04,12.856 m 152.166,31.203 c 5.628,-5.464 10.533,-11.439 14.701,-17.792 4.41,-6.722 7.998,-13.865 10.741,-21.278 -3.178,5.762 -8.268,13.374 -15.076,21.278 -2.473,2.869 -5.182,5.774 -8.098,8.644 -0.275,2.558 -1.555,5.744 -3.385,9.148 -0.397,0.738 -0.819,1.486 -1.264,2.239 0.807,-0.737 1.601,-1.482 2.381,-2.239 m -127.432,15.531 c 6.94,4.043 14.268,7.257 21.832,9.612 6.584,2.05 13.342,3.454 20.174,4.199 -5.2,-2.582 -8.642,-5.237 -10.923,-7.655 -3.046,-0.418 -6.917,-1.206 -11.103,-2.243 -6.916,-1.714 -14.659,-4.101 -20.849,-6.59 -3.581,-1.439 -6.639,-2.91 -8.714,-4.306 -0.195,0.083 -0.389,0.167 -0.586,0.242 3.277,2.46 6.675,4.703 10.169,6.741 m -13.289,-9.184 c 0.427,-0.1 0.853,-0.223 1.275,-0.358 -1.4,-2.203 -2.591,-4.133 -3.652,-5.989 -1.651,-2.887 -2.992,-5.603 -4.313,-8.896 -1.009,-2.513 -2.011,-5.369 -3.133,-8.896 -0.909,-2.854 -1.899,-6.152 -3.039,-10.068 -3.608,-4.148 -8.425,-10.129 -13.158,-17.005 -3.026,-0.547 -6.048,-1.112 -9.063,-1.713 2.882,10.018 7.287,19.727 13.25,28.786 1.821,2.767 3.781,5.477 5.895,8.112 0.213,0.265 0.431,0.523 0.645,0.784 2.577,3.152 5.298,6.119 8.15,8.896 2.299,2.241 4.684,4.355 7.143,6.347 M 74.865,141.854 l 3.87,36.034 -27.736,23.66 46.735,18.079 15.233,-37.338 9.972,3.987 7.246,-20.306 z m 313.456,74.574 c -1.633,0.379 -3.266,0.747 -4.902,1.107 -1.255,0.278 -2.512,0.545 -3.769,0.81 -0.402,0.086 -0.805,0.172 -1.209,0.256 -0.658,0.136 -1.316,0.274 -1.978,0.409 -2.363,0.481 -4.732,0.939 -7.102,1.383 -20.493,3.828 -41.265,6.224 -62.245,7.171 -0.262,0.012 -0.524,0.021 -0.786,0.034 -6.584,0.284 -13.188,0.435 -19.811,0.435 -0.344,0 -0.686,-0.007 -1.03,-0.007 -7.53,-0.016 -15.037,-0.22 -22.518,-0.607 -9.613,-0.497 -19.181,-1.297 -28.699,-2.4 -8.149,-0.945 -16.26,-2.114 -24.33,-3.5 -1.749,-0.302 -3.496,-0.613 -5.241,-0.936 -0.095,-0.018 -0.19,-0.035 -0.285,-0.053 -3.964,-0.734 -7.918,-1.52 -11.861,-2.362 -0.379,-0.08 -0.758,-0.159 -1.136,-0.24 -0.759,-0.164 -1.518,-0.332 -2.276,-0.5 -0.9,-0.199 -1.798,-0.401 -2.696,-0.605 -0.067,-0.015 -0.133,-0.03 -0.201,-0.046 -0.536,-0.122 -1.073,-0.244 -1.61,-0.369 -1.025,-0.237 -2.049,-0.482 -3.073,-0.727 -21.364,-5.122 -42.391,-11.825 -62.995,-20.1 l -26.787,64.674 c 11.759,4.742 23.638,9.04 35.625,12.896 7.119,2.29 14.279,4.417 21.472,6.393 7.058,1.937 14.149,3.728 21.273,5.363 1.69,0.387 3.38,0.772 5.074,1.142 1.724,0.378 3.451,0.743 5.179,1.103 1.447,0.301 2.896,0.592 4.345,0.88 1.41,0.281 2.822,0.558 4.235,0.827 0.821,0.156 1.641,0.311 2.462,0.462 16.626,3.083 33.409,5.355 50.324,6.801 1.089,0.092 2.181,0.179 3.272,0.265 4.356,0.345 8.718,0.635 13.09,0.87 8.964,0.483 17.962,0.74 26.989,0.764 0.466,10e-4 0.932,0.008 1.398,0.008 9.096,0 18.16,-0.242 27.192,-0.708 8.335,-0.43 16.642,-1.059 24.917,-1.884 14.056,-1.403 28.019,-3.371 41.874,-5.911 1.888,-0.346 3.771,-0.7 5.654,-1.067 0.922,-0.18 1.843,-0.369 2.762,-0.553 1.736,-0.348 3.471,-0.704 5.203,-1.071 1.692,-0.357 3.383,-0.721 5.073,-1.095 8.601,-1.908 17.157,-4.04 25.662,-6.389 2.578,-0.712 5.15,-1.441 7.719,-2.193 4.589,-1.345 9.164,-2.749 13.723,-4.221 11.761,-3.801 23.417,-8.028 34.961,-12.682 l -26.788,-64.674 c -21.257,8.538 -42.965,15.399 -65.028,20.58 -0.374,0.088 -0.747,0.18 -1.122,0.267 M 256.719,166.02 c 1.446,3.997 3.007,9.082 4.081,12.71 6.634,0.391 16.631,2.526 25.808,4.989 6.476,1.737 12.532,3.636 16.708,5.203 3.79,-1.022 23.761,-6.247 37.791,-6.645 0.646,-0.017 1.272,-0.023 1.889,-0.02 -0.242,-0.525 -0.482,-1.036 -0.723,-1.531 -0.379,-0.788 -0.756,-1.538 -1.128,-2.25 -10.583,-6.632 -22.155,-11.261 -34.134,-13.823 -4.13,-0.883 -8.306,-1.52 -12.508,-1.909 -9.475,-0.877 -19.07,-0.496 -28.511,1.185 -3.112,0.553 -6.205,1.254 -9.273,2.091 m 87.398,18.774 c -0.033,-0.077 -0.066,-0.149 -0.098,-0.226 l -0.026,0.959 c -1.682,-0.046 -3.512,0.012 -5.429,0.14 -11.333,0.763 -25.792,4.195 -31.966,5.771 0.236,3.871 0.101,15.843 -0.078,26.256 2.784,-0.125 5.566,-0.274 8.344,-0.451 19.053,-1.213 37.922,-3.652 56.552,-7.307 -6.813,-7.656 -19.171,-20.807 -27.299,-25.142 m -144.478,20.209 c -0.969,1.304 -1.908,2.624 -2.81,3.964 1.462,0.304 2.923,0.602 4.387,0.89 7.137,1.409 14.309,2.635 21.513,3.686 1.568,-0.372 3.092,-0.652 4.547,-0.819 2.372,-3.899 7.726,-9.942 13.458,-15.883 6.499,-6.739 13.47,-13.336 17.134,-16.528 -1.086,-3.687 -2.78,-9.254 -4.285,-13.392 -8.98,2.75 -17.696,6.733 -25.896,11.977 -3.179,2.033 -6.283,4.248 -9.291,6.663 -7.22,5.79 -13.477,12.34 -18.757,19.442 m 279.334,23.904 15.209,36.719 -4.568,1.891 c -11.054,4.579 -22.218,8.762 -33.474,12.569 l 88.417,64.239 H 372.14 c -4.463,5.124 -9.439,9.924 -14.922,14.323 -5.696,4.566 -11.696,8.499 -17.912,11.823 L 287,531.452 235.561,373.138 c -14.23,-6.649 -27.293,-16.29 -38.181,-28.813 H 29.443 l 88.113,-64.018 c -11.48,-3.864 -22.862,-8.123 -34.133,-12.79 l -4.566,-1.891 15.245,-36.806 -62.131,-24.035 36.378,-31.03 -5.128,-47.761 79.377,34.603 -10.564,29.603 c 16.101,6.031 32.455,11.095 49.019,15.182 L 127.821,41.548 280.643,152.58 c 4.132,-0.142 8.267,-0.057 12.382,0.24 L 446.179,41.548 393.03,205.127 c 16.286,-4.063 32.367,-9.071 48.205,-15.016 l -10.531,-29.514 79.378,-34.603 -5.131,47.761 36.378,31.03 z"
           style="fill:#000000;fill-opacity:1;fill-rule:nonzero;stroke:none"
           id="path5046"
           inkscape:connector-curvature="0" /></g></g></g></svg>